<svg width="123" height="25" viewBox="0 0 123 25" fill="none" xmlns="http://www.w3.org/2000/svg">
<g clip-path="url(#clip0_15376_1182)">
<path d="M38.5915 11.751V11.6861C39.4115 11.4411 40.0631 11.0303 40.5463 10.4537C41.0295 9.84829 41.2711 9.10594 41.2711 8.22666C41.2711 6.88612 40.7586 5.88612 39.7336 5.22306C38.7087 4.57441 37.3249 4.25009 35.5843 4.25009H29.9414V20.1348H36.1554C37.9253 20.1348 39.3676 19.76 40.4804 19.0104C41.564 18.2753 42.1058 17.1726 42.1058 15.7041C42.1058 14.6519 41.7763 13.7582 41.1174 13.0249C40.4585 12.2915 39.6165 11.8645 38.5934 11.7492L38.5915 11.751ZM32.6631 6.60684H35.5166C37.4494 6.60684 38.414 7.27711 38.414 8.61765C38.414 9.3672 38.1651 9.90054 37.6672 10.2177C37.1547 10.5348 36.4738 10.6933 35.6246 10.6933H32.6613V6.60865L32.6631 6.60684ZM38.4817 17.1978C37.9839 17.587 37.2224 17.7816 36.1993 17.7816H32.6649V13.005H36.2432C37.1511 13.005 37.8759 13.2068 38.4158 13.6104C38.9722 13.9996 39.2504 14.5978 39.2504 15.405C39.2504 16.2122 38.9942 16.8104 38.4817 17.1996V17.1978Z" fill="#1A2029"/>
<path d="M47.1749 8.72559H44.541V20.1364H47.1749V8.72559Z" fill="#1A2029"/>
<path d="M47.1749 4.25195H44.541V6.84475H47.1749V4.25195Z" fill="#1A2029"/>
<path d="M71.6564 14.1924H71.5886L66.1013 4.25189H63.246V20.1366H65.9256V9.00685H65.9915L70.8217 17.9744H72.3793L77.2096 9.00685H77.2755V20.1366H79.9551V4.25189H77.1876L71.6564 14.1924Z" fill="#1A2029"/>
<path d="M90.4401 9.30754C89.5908 8.80303 88.5878 8.55078 87.4329 8.55078C86.2779 8.55078 85.2511 8.80303 84.4037 9.30754C83.5251 9.81204 82.8443 10.5111 82.361 11.403C81.8925 12.2823 81.6582 13.3057 81.6582 14.4715C81.6582 15.6373 81.8925 16.6409 82.361 17.5183C82.8443 18.412 83.5178 19.1111 84.3817 19.6156C85.2749 20.1202 86.2926 20.3724 87.4329 20.3724C88.5732 20.3724 89.5469 20.1202 90.4401 19.6156C91.304 19.1111 91.9776 18.412 92.4608 17.5183C92.944 16.6102 93.1856 15.5958 93.1856 14.4715C93.1856 13.3472 92.944 12.3093 92.4608 11.403C91.9776 10.4949 91.304 9.79583 90.4401 9.30754ZM89.6274 17.0445C89.1003 17.7364 88.3682 18.0823 87.431 18.0823C86.4939 18.0823 85.7179 17.7364 85.1926 17.0445C84.6654 16.3526 84.4019 15.4967 84.4019 14.4733C84.4019 13.4499 84.6727 12.558 85.2145 11.8805C85.7417 11.1886 86.4811 10.8427 87.431 10.8427C88.381 10.8427 89.0857 11.1886 89.6274 11.8805C90.1692 12.5868 90.4401 13.4517 90.4401 14.4733C90.4401 15.4949 90.1692 16.34 89.6274 17.0445Z" fill="#1A2029"/>
<path d="M103.283 9.99964H103.195C102.887 9.58162 102.441 9.23567 101.855 8.9618C101.255 8.68793 100.596 8.55099 99.8782 8.55099C98.8971 8.55099 97.9966 8.79603 97.1784 9.28612C96.3438 9.7618 95.6849 10.4465 95.2017 11.3402C94.7038 12.2195 94.4549 13.2429 94.4549 14.4086C94.4549 15.6339 94.6965 16.6987 95.1797 17.6068C95.6483 18.5005 96.2925 19.1852 97.1125 19.6591C97.9032 20.1348 98.7964 20.3726 99.7903 20.3726C100.522 20.3726 101.233 20.1852 101.919 19.8104C102.578 19.4501 103.068 19.0249 103.391 18.5348L103.456 18.5564V20.178H105.915V3.64648L103.281 4.72757V10.0014L103.283 9.99964ZM102.47 17.0663C101.899 17.7438 101.152 18.0825 100.23 18.0825C99.3071 18.0825 98.6116 17.7438 98.057 17.0663C97.5006 16.4177 97.2224 15.5312 97.2224 14.4086C97.2224 13.2861 97.5079 12.4411 98.0789 11.7942C98.6354 11.16 99.3675 10.8429 100.275 10.8429C100.832 10.8429 101.337 10.9798 101.791 11.2537C102.259 11.542 102.633 11.96 102.911 12.5077C103.204 13.0843 103.35 13.7546 103.35 14.5186C103.35 15.5276 103.057 16.378 102.472 17.0681L102.47 17.0663Z" fill="#1A2029"/>
<path d="M122.957 3.64648H120.301V20.1798H122.957V3.64648Z" fill="#1A2029"/>
<path d="M58.2633 10.2808H58.2194C57.8972 9.7907 57.4213 9.37268 56.7917 9.02673C56.1621 8.68079 55.4592 8.50781 54.685 8.50781C53.6454 8.50781 52.7302 8.76006 51.9413 9.26457C51.1214 9.78349 50.4844 10.4898 50.0305 11.3817C49.5766 12.261 49.3496 13.27 49.3496 14.4069C49.3496 15.5438 49.5839 16.5979 50.0525 17.4321C50.521 18.3114 51.1506 18.9889 51.9413 19.4628C52.732 19.9384 53.596 20.1763 54.5313 20.1763C55.2927 20.1763 55.9955 20.0177 56.638 19.7006C57.2383 19.4123 57.6922 19.0231 57.9997 18.533H58.0656V19.7222C58.0656 20.5583 57.8021 21.2646 57.2749 21.8393C56.7331 22.4159 55.9278 22.7042 54.8607 22.7042C54.1872 22.7042 53.5356 22.5817 52.9078 22.3366C52.4959 22.1637 52.0914 21.9366 51.6943 21.661L49.8731 23.2069C50.5009 23.7493 51.2477 24.1799 52.1171 24.4988C53.0103 24.8303 53.9401 24.9961 54.9046 24.9961C56.735 24.9961 58.1608 24.5132 59.1858 23.5475C60.2108 22.5817 60.7233 21.279 60.7233 19.6357V8.72223L58.2651 9.62313V10.279L58.2633 10.2808ZM57.3188 16.9583C56.7478 17.6069 55.9864 17.9312 55.0364 17.9312C54.1725 17.9312 53.4623 17.5997 52.9078 16.9366C52.366 16.2736 52.0951 15.4087 52.0951 14.3438C52.0951 13.279 52.366 12.4574 52.9078 11.7943C53.4495 11.1312 54.1817 10.7997 55.1023 10.7997C55.6734 10.7997 56.1859 10.9438 56.6398 11.2321C57.123 11.5493 57.4891 11.9745 57.738 12.5078C58.0162 13.0988 58.1553 13.7475 58.1553 14.4538C58.1553 15.4628 57.8771 16.2988 57.3207 16.9601L57.3188 16.9583Z" fill="#1A2029"/>
<path d="M115.911 9.28592C115.106 8.79583 114.176 8.55078 113.123 8.55078C112.071 8.55078 111.059 8.80303 110.226 9.30754C109.362 9.79763 108.688 10.4967 108.205 11.403C107.722 12.2967 107.48 13.3057 107.48 14.4283C107.48 15.5508 107.722 16.612 108.205 17.5183C108.688 18.412 109.369 19.1111 110.248 19.6156C111.141 20.1202 112.128 20.3724 113.211 20.3724C114.163 20.3724 115.091 20.1706 115.999 19.767C116.813 19.4012 117.472 18.9111 117.981 18.2985L116.365 16.9256C115.997 17.2931 115.6 17.5868 115.166 17.8012C114.639 18.0607 114.053 18.1904 113.409 18.1904C112.413 18.1904 111.652 17.931 111.126 17.412C110.57 16.8787 110.248 16.1868 110.16 15.3382H118.481C118.495 15.0355 118.503 14.7256 118.503 14.4084C118.503 13.2841 118.276 12.2625 117.822 11.34C117.353 10.4463 116.716 9.76159 115.911 9.28592ZM110.158 13.4138C110.29 12.5634 110.612 11.9003 111.125 11.4247C111.637 10.9346 112.303 10.6895 113.123 10.6895C113.855 10.6895 114.478 10.9346 114.99 11.4247C115.488 11.9147 115.759 12.5778 115.803 13.4138H110.16H110.158Z" fill="#1A2029"/>
<path d="M21.0517 11.7895V5.91559C21.0517 5.89816 21.0422 5.88207 21.0268 5.87346L10.5497 0.00632824C10.5422 0.00210946 10.5338 2.92206e-08 10.5254 0V2.45801C10.5254 7.22726 14.5109 11.784 19.4278 11.784C19.3287 11.784 19.2299 11.7858 19.1316 11.7895H21.0517Z" fill="url(#paint0_linear_15376_1182)"/>
<path d="M-0.000925064 11.7895V17.8731C-0.000925064 17.8912 0.00857449 17.9079 0.0239525 17.9168L10.5011 23.9934C10.5086 23.9978 10.517 24 10.5254 24V21.4542C10.5254 16.5146 6.53987 11.7952 1.62302 11.7952C1.72212 11.7952 1.82085 11.7933 1.91917 11.7895H-0.000925064Z" fill="url(#paint1_linear_15376_1182)"/>
<path d="M-0.000925064 11.7895V5.91559C-0.000925064 5.89816 0.00857449 5.88207 0.0239525 5.87346L10.5011 0.00632824C10.5086 0.00210946 10.517 2.92206e-08 10.5254 0V2.45801C10.5254 7.22726 6.53987 11.784 1.62302 11.784C1.72212 11.784 1.82085 11.7858 1.91917 11.7895H-0.000925064Z" fill="url(#paint2_linear_15376_1182)"/>
<path d="M21.0517 11.7895V17.8731C21.0517 17.8912 21.0422 17.9079 21.0268 17.9168L10.5497 23.9934C10.5422 23.9978 10.5338 24 10.5254 24V21.4542C10.5254 16.5146 14.5109 11.7952 19.4278 11.7952C19.3287 11.7952 19.2299 11.7933 19.1316 11.7895H21.0517Z" fill="url(#paint3_linear_15376_1182)"/>
<path d="M10.5273 2.45801C10.5273 7.22725 14.5129 11.7842 19.4297 11.7842L19.1338 11.7891C19.232 11.7929 19.3307 11.7949 19.4297 11.7949C14.5129 11.7949 10.5274 16.5146 10.5273 21.4541C10.5273 16.5581 6.61178 11.8801 1.75488 11.7979L1.75391 11.792L1.9209 11.7891C1.86537 11.787 1.80969 11.7869 1.75391 11.7861V11.7803C6.61128 11.7015 10.5273 7.18549 10.5273 2.45801Z" fill="#F7F8FA"/>
</g>
<defs>
<linearGradient id="paint0_linear_15376_1182" x1="9.93787" y1="0.564861" x2="20.4628" y2="7.68592" gradientUnits="userSpaceOnUse">
<stop stop-color="#988EFF"/>
<stop offset="1" stop-color="#2153DD"/>
</linearGradient>
<linearGradient id="paint1_linear_15376_1182" x1="9.34775" y1="21.242" x2="-1.57142" y2="11.4259" gradientUnits="userSpaceOnUse">
<stop stop-color="#8EAEFF"/>
<stop offset="1" stop-color="#2199DD"/>
</linearGradient>
<linearGradient id="paint2_linear_15376_1182" x1="1.28285" y1="11.7895" x2="9.86855" y2="-0.120872" gradientUnits="userSpaceOnUse">
<stop stop-color="#988EFF"/>
<stop offset="1" stop-color="#2153DD"/>
</linearGradient>
<linearGradient id="paint3_linear_15376_1182" x1="21.0517" y1="11.2977" x2="10.7663" y2="23.7957" gradientUnits="userSpaceOnUse">
<stop stop-color="#8EA7FF"/>
<stop offset="1" stop-color="#2161DD"/>
</linearGradient>
<clipPath id="clip0_15376_1182">
<rect width="123" height="25" fill="white"/>
</clipPath>
</defs>
</svg>
