<svg width="123" height="25" viewBox="0 0 123 25" fill="none" xmlns="http://www.w3.org/2000/svg">
<g clip-path="url(#clip0_15376_1182)">
<path d="M35.584 4.75009C37.1639 4.75009 38.3874 5.02714 39.29 5.54013L39.4658 5.6456C40.3302 6.2064 40.7715 7.03805 40.7715 8.22665C40.7715 9.00815 40.5577 9.63495 40.1553 10.1397C39.7439 10.6272 39.1837 10.9873 38.4482 11.2071L38.0918 11.3136V12.8517C37.5559 12.6162 36.9343 12.505 36.2432 12.505H32.165V18.2813H36.1992C36.8703 18.2813 37.4717 18.2019 37.9814 18.0225V18.2071L38.7842 17.5977C39.4523 17.0903 39.7499 16.3248 39.75 15.4054C39.75 14.4701 39.4188 13.7015 38.7021 13.2003H38.7012C38.5323 13.0755 38.3504 12.9698 38.1572 12.88L38.7656 12.2804C39.5669 12.416 40.2205 12.7756 40.7451 13.3595C41.3156 13.9944 41.6055 14.7662 41.6055 15.7042C41.6055 17.0306 41.1271 17.9672 40.1992 18.5968C39.1918 19.2747 37.856 19.6349 36.1553 19.6349H30.4414V4.75009H35.584ZM32.3125 6.25009L32.3105 6.25204L32.1611 6.3995V11.1934H35.625C36.5308 11.1934 37.3132 11.0247 37.9307 10.6427L37.9355 10.6397C38.6168 10.2058 38.9141 9.48526 38.9141 8.61728C38.914 7.81035 38.6131 7.14213 37.9756 6.69931C37.3708 6.27944 36.5253 6.10654 35.5166 6.10653H32.458L32.3125 6.25009Z" fill="white" stroke="white"/>
<path d="M46.6748 9.22559V19.6367H45.041V9.22559H46.6748Z" fill="white" stroke="white"/>
<path d="M46.6748 4.75195V6.34473H45.041V4.75195H46.6748Z" fill="white" stroke="white"/>
<path d="M65.8066 4.75189L71.1513 14.4345L71.2939 14.6923H71.9501L72.0937 14.4355L77.4823 4.75189H79.455V19.6367H77.7753V8.50677H76.9111L76.7695 8.76947L72.081 17.4745H71.12L66.4316 8.76947L66.29 8.50677H65.4257V19.6367H63.746V4.75189H65.8066Z" fill="white" stroke="white"/>
<path d="M87.4326 9.05078C88.5131 9.05078 89.4249 9.28607 90.1846 9.7373L90.1943 9.74316C90.9718 10.1827 91.5793 10.8104 92.0195 11.6377V11.6387C92.4597 12.4644 92.6855 13.4198 92.6855 14.4717C92.6855 15.5204 92.4607 16.4517 92.0205 17.2803C91.5802 18.0947 90.971 18.7261 90.1875 19.1836C89.3763 19.6403 88.4901 19.8721 87.4326 19.8721C86.3717 19.872 85.4431 19.6385 84.6348 19.1836C83.8513 18.7261 83.2411 18.0947 82.8008 17.2803C82.3774 16.4863 82.1582 15.5668 82.1582 14.4717C82.1582 13.3754 82.378 12.4363 82.8008 11.6416C83.2399 10.8311 83.8547 10.1993 84.6523 9.74121L84.6592 9.7373C85.4152 9.28723 86.35 9.05082 87.4326 9.05078ZM87.4307 10.3428C86.3416 10.3429 85.4478 10.7485 84.8164 11.5771C84.1938 12.3607 83.9023 13.3676 83.9023 14.4736C83.9024 15.5861 84.1899 16.5534 84.7939 17.3467C85.427 18.1804 86.3606 18.5819 87.4307 18.582C88.5099 18.582 89.3945 18.1734 90.0244 17.3467C90.6409 16.5441 90.9404 15.5895 90.9404 14.4736C90.9404 13.3591 90.6428 12.3824 90.0244 11.5762L90.0215 11.5723L89.8984 11.4238C89.2732 10.7048 88.4596 10.3428 87.4307 10.3428Z" fill="white" stroke="white"/>
<path d="M100.275 10.3428C99.2364 10.3428 98.363 10.7124 97.7039 11.4629C97.0333 12.2226 96.7226 13.1962 96.7225 14.4082C96.7225 15.607 97.0196 16.6184 97.6697 17.3818V17.3828C98.3197 18.1768 99.1578 18.5829 100.229 18.583C101.104 18.583 101.86 18.3113 102.474 17.7725L102.505 17.8018L102.853 17.3916C103.525 16.6006 103.85 15.6313 103.85 14.5186C103.85 13.6902 103.692 12.9396 103.357 12.2812C103.042 11.6612 102.608 11.1702 102.053 10.8281L102.05 10.8252L101.846 10.7119C101.364 10.4648 100.838 10.3428 100.275 10.3428ZM103.957 18.1943L103.612 18.0811L103.547 18.0596L103.182 17.9404L102.972 18.2598C102.706 18.6649 102.286 19.0403 101.68 19.3721C101.062 19.7095 100.433 19.873 99.7899 19.873C98.8796 19.873 98.0766 19.6556 97.3699 19.2305L97.3631 19.2266L97.0955 19.0586C96.488 18.6467 95.9972 18.0888 95.6229 17.375L95.6209 17.3721L95.4666 17.0557C95.1295 16.3005 94.9549 15.4221 94.9549 14.4082C94.955 13.3157 95.1876 12.3799 95.6365 11.5869L95.6414 11.5781C96.0828 10.7618 96.6771 10.1474 97.4256 9.7207L97.4354 9.71484C98.1734 9.27279 98.9846 9.05085 99.8778 9.05078C100.449 9.05078 100.97 9.14635 101.446 9.33203L101.647 9.41699C102.166 9.66018 102.535 9.95283 102.781 10.2822V11.1943L103.632 10.3584L103.633 10.3564L104.504 9.5H103.781V5.0625L105.415 4.3916V19.6777H103.957V18.1943Z" fill="white" stroke="white"/>
<path d="M122.457 4.14648V19.6797H120.801V4.14648H122.457Z" fill="white" stroke="white"/>
<path d="M54.6846 9.00781C55.3814 9.00781 56.0007 9.16266 56.5508 9.46484C57.1248 9.78024 57.5334 10.1474 57.8018 10.5557L57.9492 10.7812H58.4678L58.6143 10.6377L58.6152 10.6357L58.7646 10.4883V9.97266L60.2236 9.4375V19.6357C60.2236 21.1661 59.7507 22.3281 58.8428 23.1836C57.9357 24.0382 56.6464 24.4961 54.9043 24.4961C53.9984 24.4961 53.1277 24.3408 52.291 24.0303L52.2891 24.0293C51.6788 23.8054 51.1387 23.525 50.6641 23.1904L51.7314 22.2842C52.0517 22.4845 52.3791 22.6572 52.7139 22.7979L52.7256 22.8027C53.4113 23.0704 54.1248 23.2041 54.8604 23.2041C56.0153 23.2041 56.9738 22.8903 57.6396 22.1816L57.6436 22.1777C58.2617 21.5037 58.5653 20.6737 58.5654 19.7227V18.0332H57.7236L57.5762 18.2676C57.3261 18.666 56.95 18.9963 56.4219 19.25L56.417 19.252C55.8478 19.5329 55.2209 19.6768 54.5312 19.6768C53.6854 19.6768 52.9109 19.4623 52.1992 19.0342H52.1982C51.492 18.6109 50.9237 18.0032 50.4941 17.1973L50.4883 17.1875L50.3408 16.8984C50.0191 16.2019 49.8496 15.3459 49.8496 14.4072C49.8496 13.3382 50.0625 12.4097 50.4746 11.6113L50.4766 11.6084C50.8912 10.7939 51.4676 10.1567 52.209 9.6875L52.2109 9.68555C52.9104 9.23827 53.7297 9.00788 54.6846 9.00781ZM55.1025 10.2998C54.045 10.2998 53.1652 10.6886 52.5205 11.4775C51.8923 12.2464 51.5947 13.1869 51.5947 14.3438C51.5947 15.4949 51.8894 16.4805 52.5205 17.2529L52.5244 17.2578C53.174 18.0342 54.0245 18.4316 55.0361 18.4316C55.9241 18.4316 56.6935 18.1756 57.3154 17.6562L57.3555 17.6953L57.7031 17.2822C58.3478 16.5161 58.6552 15.5599 58.6553 14.4541C58.6553 13.6806 58.5022 12.9586 58.1904 12.2959H58.1914C57.904 11.6802 57.4762 11.1834 56.9141 10.8145L56.9082 10.8105L56.7021 10.6895C56.216 10.4281 55.6796 10.2998 55.1025 10.2998Z" fill="white" stroke="white"/>
<path d="M113.123 9.05078C114.095 9.05078 114.933 9.2759 115.651 9.71289L115.656 9.7168C116.374 10.1406 116.947 10.7518 117.376 11.5674C117.791 12.4134 118.003 13.3561 118.003 14.4082C118.003 14.553 118 14.6964 117.997 14.8379H109.605L109.663 15.3896C109.762 16.3423 110.129 17.1482 110.78 17.7725C111.428 18.409 112.332 18.6904 113.409 18.6904C114.122 18.6904 114.785 18.5464 115.387 18.25L115.388 18.249C115.742 18.0739 116.071 17.8535 116.378 17.5928L117.258 18.3408C116.857 18.7259 116.373 19.0506 115.794 19.3105C114.948 19.6866 114.089 19.8721 113.211 19.8721C112.21 19.872 111.309 19.6405 110.496 19.1816H110.497C109.799 18.7808 109.241 18.2474 108.818 17.5762L108.646 17.2803C108.207 16.4565 107.981 15.4794 107.98 14.4287C107.98 13.5114 108.153 12.6874 108.49 11.9512L108.646 11.6387C109.087 10.8128 109.694 10.1837 110.473 9.74219L110.479 9.73926L110.485 9.73535C111.229 9.28513 112.148 9.05083 113.123 9.05078ZM113.123 10.1895C112.254 10.1895 111.499 10.4366 110.897 10.9561L110.784 11.0586C110.172 11.6271 109.809 12.402 109.664 13.3369L109.575 13.9141H116.33L116.303 13.3877C116.254 12.4531 115.945 11.6628 115.341 11.0684L115.336 11.0635L115.102 10.8584C114.539 10.4125 113.872 10.1895 113.123 10.1895Z" fill="white" stroke="white"/>
<path d="M21.0517 11.7895V5.91559C21.0517 5.89816 21.0422 5.88207 21.0268 5.87346L10.5497 0.00632824C10.5422 0.00210946 10.5338 2.92206e-08 10.5254 0V2.45801C10.5254 7.22726 14.5109 11.784 19.4278 11.784C19.3287 11.784 19.2299 11.7858 19.1316 11.7895H21.0517Z" fill="url(#paint0_linear_15376_1182)"/>
<path d="M-0.000925064 11.7895V17.8731C-0.000925064 17.8912 0.00857449 17.9079 0.0239525 17.9168L10.5011 23.9934C10.5086 23.9978 10.517 24 10.5254 24V21.4542C10.5254 16.5146 6.53987 11.7952 1.62302 11.7952C1.72212 11.7952 1.82085 11.7933 1.91917 11.7895H-0.000925064Z" fill="url(#paint1_linear_15376_1182)"/>
<path d="M-0.000925064 11.7895V5.91559C-0.000925064 5.89816 0.00857449 5.88207 0.0239525 5.87346L10.5011 0.00632824C10.5086 0.00210946 10.517 2.92206e-08 10.5254 0V2.45801C10.5254 7.22726 6.53987 11.784 1.62302 11.784C1.72212 11.784 1.82085 11.7858 1.91917 11.7895H-0.000925064Z" fill="url(#paint2_linear_15376_1182)"/>
<path d="M21.0517 11.7895V17.8731C21.0517 17.8912 21.0422 17.9079 21.0268 17.9168L10.5497 23.9934C10.5422 23.9978 10.5338 24 10.5254 24V21.4542C10.5254 16.5146 14.5109 11.7952 19.4278 11.7952C19.3287 11.7952 19.2299 11.7933 19.1316 11.7895H21.0517Z" fill="url(#paint3_linear_15376_1182)"/>
<path d="M10.5273 2.45801C10.5273 7.22725 14.5129 11.7842 19.4297 11.7842L19.1338 11.7891C19.232 11.7929 19.3307 11.7949 19.4297 11.7949C14.5129 11.7949 10.5274 16.5146 10.5273 21.4541C10.5273 16.5581 6.61178 11.8801 1.75488 11.7979L1.75391 11.792L1.9209 11.7891C1.86537 11.787 1.80969 11.7869 1.75391 11.7861V11.7803C6.61128 11.7015 10.5273 7.18549 10.5273 2.45801Z" fill="#F7F8FA"/>
</g>
<defs>
<linearGradient id="paint0_linear_15376_1182" x1="9.93787" y1="0.564861" x2="20.4628" y2="7.68592" gradientUnits="userSpaceOnUse">
<stop stop-color="#988EFF"/>
<stop offset="1" stop-color="#2153DD"/>
</linearGradient>
<linearGradient id="paint1_linear_15376_1182" x1="9.34775" y1="21.242" x2="-1.57142" y2="11.4259" gradientUnits="userSpaceOnUse">
<stop stop-color="#8EAEFF"/>
<stop offset="1" stop-color="#2199DD"/>
</linearGradient>
<linearGradient id="paint2_linear_15376_1182" x1="1.28285" y1="11.7895" x2="9.86855" y2="-0.120872" gradientUnits="userSpaceOnUse">
<stop stop-color="#988EFF"/>
<stop offset="1" stop-color="#2153DD"/>
</linearGradient>
<linearGradient id="paint3_linear_15376_1182" x1="21.0517" y1="11.2977" x2="10.7663" y2="23.7957" gradientUnits="userSpaceOnUse">
<stop stop-color="#8EA7FF"/>
<stop offset="1" stop-color="#2161DD"/>
</linearGradient>
<clipPath id="clip0_15376_1182">
<rect width="123" height="25" fill="white"/>
</clipPath>
</defs>
</svg>
